<svg width="60" height="60" viewBox="0 0 60 60" fill="none" xmlns="http://www.w3.org/2000/svg">
<rect x="1.5" y="7.92865" width="57" height="50.5714" rx="3.5" stroke="white" stroke-width="3"/>
<path d="M22.8935 26.4926C25.3468 26.4926 27.2135 27.0046 28.4935 28.0286C29.7735 29.0313 30.4135 30.3859 30.4135 32.0926C30.4135 33.1166 30.1362 33.9913 29.5815 34.7166C29.0482 35.4206 28.4082 35.9539 27.6615 36.3166C28.1095 36.4873 28.5255 36.7006 28.9095 36.9566C29.2935 37.2126 29.6348 37.5326 29.9335 37.9166C30.2322 38.3006 30.4668 38.7486 30.6375 39.2606C30.8082 39.7726 30.8935 40.3699 30.8935 41.0526C30.8935 41.9699 30.6908 42.7913 30.2855 43.5166C29.9015 44.2419 29.3575 44.8606 28.6535 45.3726C27.9495 45.8846 27.1068 46.2686 26.1255 46.5246C25.1655 46.8019 24.1095 46.9406 22.9575 46.9406C20.7388 46.9406 19.0642 46.6313 17.9335 46.0126C16.8028 45.3939 16.2375 44.6046 16.2375 43.6446C16.2375 43.0686 16.3762 42.5779 16.6535 42.1726C16.9308 41.7459 17.2722 41.4153 17.6775 41.1806C18.1042 41.4793 18.6695 41.7993 19.3735 42.1406C20.0988 42.4606 21.0375 42.6206 22.1895 42.6206C23.2775 42.6206 24.0775 42.4286 24.5895 42.0446C25.1228 41.6606 25.3895 41.1593 25.3895 40.5406C25.3895 39.9219 25.1762 39.4526 24.7495 39.1326C24.3442 38.8126 23.6295 38.6526 22.6055 38.6526H19.5975C19.4482 38.4179 19.3202 38.1299 19.2135 37.7886C19.1068 37.4473 19.0535 37.0419 19.0535 36.5726C19.0535 36.0819 19.0962 35.6659 19.1815 35.3246C19.2882 34.9619 19.4268 34.6633 19.5975 34.4286H22.6055C24.1415 34.4286 24.9095 33.8419 24.9095 32.6686C24.9095 32.1139 24.6642 31.6659 24.1735 31.3246C23.6828 30.9833 22.9468 30.8126 21.9655 30.8126C21.0908 30.8126 20.3228 30.9193 19.6615 31.1326C19.0002 31.3246 18.4562 31.5699 18.0295 31.8686C17.6668 31.6126 17.3682 31.3033 17.1335 30.9406C16.8988 30.5566 16.7815 30.1086 16.7815 29.5966C16.7815 28.5299 17.3362 27.7513 18.4455 27.2606C19.5548 26.7486 21.0375 26.4926 22.8935 26.4926ZM36.96 32.1566L33.76 33.1486C33.44 32.9353 33.12 32.6366 32.8 32.2526C32.48 31.8686 32.32 31.3353 32.32 30.6526C32.32 29.3726 33.0987 28.4766 34.656 27.9646L38.24 26.7486H39.424C40.3413 26.7486 41.0667 27.0153 41.6 27.5486C42.1333 28.0819 42.4 28.8073 42.4 29.7246V46.3966C42.1653 46.4393 41.8133 46.4926 41.344 46.5566C40.896 46.6419 40.4373 46.6846 39.968 46.6846C39.4987 46.6846 39.072 46.6526 38.688 46.5886C38.3253 46.5246 38.016 46.3966 37.76 46.2046C37.504 46.0126 37.3013 45.7566 37.152 45.4366C37.024 45.0953 36.96 44.6579 36.96 44.1246V32.1566Z" fill="white"/>
<rect y="6.42865" width="60" height="15.7143" fill="white"/>
<line x1="11.0714" x2="11.0714" y2="14.2857" stroke="white" stroke-width="5"/>
<line x1="49.6429" x2="49.6429" y2="14.2857" stroke="white" stroke-width="5"/>
</svg>
